<svg xmlns="http://www.w3.org/2000/svg" width="24.178" height="28.976" viewBox="0 0 24.178 28.976"><defs><linearGradient x1="238.579" y1="166.579" x2="238.579" y2="193.611" gradientUnits="userSpaceOnUse" id="a"><stop offset="0" stop-color="#008c48"/><stop offset="1" stop-color="#006e8c"/></linearGradient><linearGradient x1="239.02" y1="169.792" x2="239.02" y2="190.223" gradientUnits="userSpaceOnUse" id="b"><stop offset="0" stop-color="#00ff84"/><stop offset="1" stop-color="#00c9ff"/></linearGradient></defs><g stroke-width="0" stroke-miterlimit="10"><path d="M229.412 182.73c-2.599-2.556-1.329-4.077.556-5.774 1.884-1.697 15.334-9.675 16.886-10.595 3.507-2.08 5.182.776 5.182 2.684 0 3.325.084 16.163.084 21.686 0 2.177-1.451 5.22-4.742 3.237 0 0-12.565-7.177-17.966-11.238" fill="url(#a)" transform="translate(-227.942 -165.635)"/><path d="M247.59 191.252c-4.142-1.983-11.028-6.3-15.94-9.663-1.367-.936-.957-2.334.154-3.236s11.636-7.723 15.754-9.693c1.308-.627 2.137.609 2.137 2.051v19.036c0 1.52-.815 2.122-2.105 1.505" fill="url(#b)" transform="translate(-227.942 -165.635)"/></g></svg>
