<svg xmlns="http://www.w3.org/2000/svg" width="24.178" height="28.976" viewBox="0 0 24.178 28.976"><defs><linearGradient x1="241.452" y1="166.456" x2="241.452" y2="193.488" gradientUnits="userSpaceOnUse" id="a"><stop offset="0" stop-color="#008c48"/><stop offset="1" stop-color="#006e8c"/></linearGradient><linearGradient x1="241.011" y1="169.669" x2="241.011" y2="190.1" gradientUnits="userSpaceOnUse" id="b"><stop offset="0" stop-color="#00ff84"/><stop offset="1" stop-color="#00c9ff"/></linearGradient></defs><g stroke-width="0" stroke-miterlimit="10"><path d="M250.619 182.607c-5.401 4.061-17.966 11.238-17.966 11.238-3.291 1.983-4.742-1.06-4.742-3.237 0-5.523.084-18.361.084-21.686 0-1.908 1.675-4.764 5.182-2.684 1.552.92 15.002 8.898 16.886 10.595 1.885 1.697 3.155 3.218.556 5.774" fill="url(#a)" transform="translate(-227.91 -165.511)"/><path d="M232.44 191.129c-1.29.617-2.104.015-2.104-1.505v-19.036c0-1.442.829-2.678 2.137-2.051 4.118 1.97 14.643 8.791 15.754 9.693s1.52 2.3.154 3.236c-4.912 3.363-11.798 7.68-15.94 9.663" fill="url(#b)" transform="translate(-227.91 -165.511)"/></g></svg>
