<svg xmlns="http://www.w3.org/2000/svg" width="77.205" height="77.205" viewBox="0 0 77.205 77.205"><defs><linearGradient x1="292.704" y1="152.704" x2="347.296" y2="207.296" gradientUnits="userSpaceOnUse" id="a"><stop offset="0" stop-color="#00994f"/><stop offset="1" stop-color="#007899"/></linearGradient><linearGradient x1="295.894" y1="155.894" x2="344.106" y2="204.106" gradientUnits="userSpaceOnUse" id="b"><stop offset="0" stop-color="#00ff84"/><stop offset="1" stop-color="#00c9ff"/></linearGradient></defs><g stroke-miterlimit="10"><path d="M292.704 207.296c-15.075-15.075-15.075-39.517 0-54.592s39.517-15.075 54.592 0 15.075 39.517 0 54.592-39.517 15.075-54.592 0" fill="url(#a)" transform="translate(-281.398 -141.398)"/><path d="M295.894 204.106c-13.313-13.314-13.313-34.898 0-48.212s34.898-13.313 48.212 0 13.313 34.898 0 48.212-34.898 13.313-48.212 0" fill="url(#b)" transform="translate(-281.398 -141.398)"/><path d="m26.237 26.972 11.271-11.271a1.64 1.64 0 0 1 2.354 0l11.27 11.27c1.074 1.074.29 2.845-1.197 2.845H44.32l-3.344 13.253a2.416 2.416 0 0 1-2.93 1.734 2.36 2.36 0 0 1-1.776-1.734l-3.344-13.253h-5.491c-1.487 0-2.27-1.771-1.198-2.845zm33.565 14.28v6.812c0 5.243-4.252 9.537-9.496 9.537H26.939c-5.285 0-9.537-4.294-9.537-9.537v-6.812a3.09 3.09 0 0 1 3.096-3.096 3.09 3.09 0 0 1 3.097 3.096v6.812c0 1.817 1.486 3.344 3.344 3.344h23.367c1.817 0 3.303-1.527 3.303-3.344v-6.812a3.09 3.09 0 0 1 3.097-3.096 3.066 3.066 0 0 1 3.096 3.096z" fill="#fff" fill-rule="evenodd" stroke="#fff"/></g></svg>
