<svg viewBox="0 0 77.204 77.204" height="77.204" width="77.204" xmlns="http://www.w3.org/2000/svg"><defs><linearGradient id="a" gradientUnits="userSpaceOnUse" y2="207.296" x2="267.296" y1="152.704" x1="212.704"><stop stop-color="#00994f" offset="0"/><stop stop-color="#007899" offset="1"/></linearGradient><linearGradient id="b" gradientUnits="userSpaceOnUse" y2="204.106" x2="264.106" y1="155.894" x1="215.894"><stop stop-color="#00ff84" offset="0"/><stop stop-color="#00c9ff" offset="1"/></linearGradient></defs><g stroke-miterlimit="10"><path transform="translate(-201.398 -141.398)" fill="url(#a)" d="M212.704 207.296c-15.075-15.075-15.075-39.517 0-54.592s39.517-15.075 54.592 0 15.075 39.517 0 54.592-39.517 15.075-54.592 0"/><path transform="translate(-201.398 -141.398)" fill="url(#b)" d="M215.894 204.106c-13.313-13.314-13.313-34.898 0-48.212s34.898-13.313 48.212 0 13.313 34.898 0 48.212-34.898 13.313-48.212 0"/><path fill="#fff" d="m51.413 33.72-19.39 19.395a8.1 8.1 0 0 1-3.771 2.135l-7.44 1.86a1.624 1.624 0 0 1-1.968-1.969l1.86-7.439a8.1 8.1 0 0 1 2.135-3.771l19.39-19.395zm4.595-13.774a6.494 6.494 0 0 1 0 9.184l-2.299 2.294-9.184-9.184 2.299-2.294a6.494 6.494 0 0 1 9.184 0"/></g></svg>
