<svg xmlns="http://www.w3.org/2000/svg" width="195.333" height="136.733" viewBox="0 0 195.333 136.733"><g fill="#fff" stroke-width="0" stroke-linecap="round" stroke-linejoin="round"><path d="M195.334 68.367s-35.517 68.367-97.667 68.367S0 68.367 0 68.367 35.515 0 97.667 0s97.667 68.367 97.667 68.367m-97.667 48.8c26.952 0 48.8-21.848 48.8-48.8s-21.848-48.8-48.8-48.8-48.8 21.848-48.8 48.8 21.848 48.8 48.8 48.8"/><path d="M65.367 68.367c0-17.84 14.46-32.3 32.3-32.3s32.3 14.46 32.3 32.3-14.46 32.3-32.3 32.3-32.3-14.46-32.3-32.3"/></g></svg>