<svg width="800" height="800" viewBox="0 0 512 512" xmlns="http://www.w3.org/2000/svg"><linearGradient x1="512" y1="512" x2="0" y2="0" gradientUnits="userSpaceOnUse" id="a"><stop offset="0" stop-color="#00ff84"/><stop offset="1" stop-color="#00c9ff"/></linearGradient><path d="M440 432H72a40 40 0 0 1-40-40V120a40 40 0 0 1 40-40h75.89a40 40 0 0 1 22.19 6.72l27.84 18.56a40 40 0 0 0 22.19 6.72H440a40 40 0 0 1 40 40v240a40 40 0 0 1-40 40M32 192h448" style="fill:none;stroke:url(#a);stroke-linecap:round;stroke-linejoin:round;stroke-width:32px"/></svg>
