<svg id="visual" viewBox="0 0 900 600" width="900" height="600" xmlns="http://www.w3.org/2000/svg" xmlns:xlink="http://www.w3.org/1999/xlink" version="1.1"><path d="M0 67L25 65C50 63 100 59 150 56C200 53 250 51 300 47C350 43 400 37 450 40C500 43 550 55 600 63C650 71 700 75 750 78C800 81 850 83 875 84L900 85L900 0L875 0C850 0 800 0 750 0C700 0 650 0 600 0C550 0 500 0 450 0C400 0 350 0 300 0C250 0 200 0 150 0C100 0 50 0 25 0L0 0Z" fill="#00AAD9"></path><path d="M0 187L25 197C50 207 100 227 150 236C200 245 250 243 300 239C350 235 400 229 450 213C500 197 550 171 600 170C650 169 700 193 750 209C800 225 850 233 875 237L900 241L900 83L875 82C850 81 800 79 750 76C700 73 650 69 600 61C550 53 500 41 450 38C400 35 350 41 300 45C250 49 200 51 150 54C100 57 50 61 25 63L0 65Z" fill="#0087B6"></path><path d="M0 235L25 253C50 271 100 307 150 320C200 333 250 323 300 315C350 307 400 301 450 284C500 267 550 239 600 243C650 247 700 283 750 296C800 309 850 299 875 294L900 289L900 239L875 235C850 231 800 223 750 207C700 191 650 167 600 168C550 169 500 195 450 211C400 227 350 233 300 237C250 241 200 243 150 234C100 225 50 205 25 195L0 185Z" fill="#016793"></path><path d="M0 289L25 311C50 333 100 377 150 388C200 399 250 377 300 362C350 347 400 339 450 329C500 319 550 307 600 315C650 323 700 351 750 355C800 359 850 339 875 329L900 319L900 287L875 292C850 297 800 307 750 294C700 281 650 245 600 241C550 237 500 265 450 282C400 299 350 305 300 313C250 321 200 331 150 318C100 305 50 269 25 251L0 233Z" fill="#00476Fe6"></path><path d="M0 499L25 498C50 497 100 495 150 496C200 497 250 501 300 500C350 499 400 493 450 488C500 483 550 479 600 487C650 495 700 515 750 523C800 531 850 527 875 525L900 523L900 317L875 327C850 337 800 357 750 353C700 349 650 321 600 313C550 305 500 317 450 327C400 337 350 345 300 360C250 375 200 397 150 386C100 375 50 331 25 309L0 287Z" fill="#00284Dcc"></path><path d="M0 601L25 601C50 601 100 601 150 601C200 601 250 601 300 601C350 601 400 601 450 601C500 601 550 601 600 601C650 601 700 601 750 601C800 601 850 601 875 601L900 601L900 521L875 523C850 525 800 529 750 521C700 513 650 493 600 485C550 477 500 481 450 486C400 491 350 497 300 498C250 499 200 495 150 494C100 493 50 495 25 496L0 497Z" fill="#00000000"></path></svg>