<svg xmlns="http://www.w3.org/2000/svg" width="143.445" height="142.569" viewBox="0 0 143.445 142.569"><g fill="#fff" stroke="#fff"><path d="M132.736 74.089a3.71 3.71 0 0 1 3.708 3.709v33.734c0 13.241-10.768 24.038-24.037 24.038h-81.37C17.796 135.57 7 124.801 7 111.532V77.248a3.693 3.693 0 0 1 3.708-3.708 3.693 3.693 0 0 1 3.709 3.708v34.284c0 9.148 7.445 16.62 16.62 16.62h81.37c9.148 0 16.62-7.444 16.62-16.62V77.798a3.693 3.693 0 0 1 3.709-3.709" stroke-width="14"/><path d="M67.384 42.035v51.167a4.32 4.32 0 0 0 4.338 4.338 4.32 4.32 0 0 0 4.338-4.338V41.785s21.724 2.348 23.928-.044c1.814-1.969 4.058-4.434 2.355-6.137L74.774 8.036c-.803-.804-1.927-1.286-3.052-1.286-1.157 0-2.25.45-3.052 1.286L41.101 35.604c-1.703 1.703-.68 6.042 1.75 6.637s24.533-.206 24.533-.206z" stroke-width="13.5" stroke-linecap="round"/></g></svg>