<svg viewBox="0 0 77.204 77.204" height="77.204" width="77.204" xmlns="http://www.w3.org/2000/svg"><defs><linearGradient id="a" gradientUnits="userSpaceOnUse" y2="207.296" x2="267.296" y1="152.703" x1="212.703"><stop stop-color="#00994f" offset="0"/><stop stop-color="#007899" offset="1"/></linearGradient><linearGradient id="b" gradientUnits="userSpaceOnUse" y2="204.106" x2="264.106" y1="155.893" x1="215.893"><stop stop-color="#00ff84" offset="0"/><stop stop-color="#00c9ff" offset="1"/></linearGradient></defs><g stroke-miterlimit="10"><path transform="translate(-201.397 -141.397)" fill="url(#a)" d="M212.704 207.296c-15.076-15.075-15.076-39.517 0-54.592 15.074-15.075 39.516-15.075 54.591 0s15.075 39.517 0 54.592-39.517 15.075-54.592 0"/><path transform="translate(-201.397 -141.397)" fill="url(#b)" d="M215.894 204.106c-13.314-13.314-13.314-34.898 0-48.212 13.312-13.314 34.897-13.313 48.211 0s13.313 34.898 0 48.212-34.898 13.313-48.212 0"/><path stroke="#fff" fill="#fff" d="M13.728 38.603s11.137-16.375 24.875-16.375 24.875 16.375 24.875 16.375-11.137 16.375-24.875 16.375-24.875-16.375-24.875-16.375zm24.875 10.375c5.73 0 10.375-4.645 10.375-10.375s-4.645-10.375-10.375-10.375-10.375 4.645-10.375 10.375 4.645 10.375 10.375 10.375z"/></g></svg>
